<?xml version="1.0" encoding="utf-8"?><!-- Uploaded to: SVG Repo, www.svgrepo.com, Generator: SVG Repo Mixer Tools -->
<svg width="800px" height="800px" viewBox="0 0 24 24" fill="none" xmlns="http://www.w3.org/2000/svg">
<path d="M15 18C15 19.6569 13.6569 21 12 21C10.3431 21 9 19.6569 9 18M15 18C15 16.3431 13.6569 15 12 15M15 18H21M9 18C9 16.3431 10.3431 15 12 15M9 18H3M12 15V12M4 12H20M18 12V6.2C18 5.0799 18 4.51984 17.782 4.09202C17.5903 3.71569 17.2843 3.40973 16.908 3.21799C16.4802 3 15.9201 3 14.8 3H9.2C8.0799 3 7.51984 3 7.09202 3.21799C6.71569 3.40973 6.40973 3.71569 6.21799 4.09202C6 4.51984 6 5.0799 6 6.2V12" stroke="#000000" stroke-width="2" stroke-linecap="round" stroke-linejoin="round"/>
</svg>